<svg width="1200" height="630" viewBox="0 0 1200 630" fill="none" xmlns="http://www.w3.org/2000/svg">
  <rect width="1200" height="630" fill="#F8FBFC"/>
  <rect x="84" y="72" width="1032" height="486" rx="32" fill="#FFFFFF" stroke="#D8E3EA" stroke-width="2"/>
  <rect x="154" y="144" width="344" height="342" rx="28" fill="#ECF6FA"/>
  <rect x="190" y="184" width="272" height="28" rx="14" fill="#111827"/>
  <rect x="190" y="238" width="214" height="18" rx="9" fill="#67B7D1"/>
  <rect x="190" y="282" width="252" height="18" rx="9" fill="#B7CCD7"/>
  <rect x="190" y="318" width="188" height="18" rx="9" fill="#B7CCD7"/>
  <rect x="190" y="380" width="128" height="44" rx="22" fill="#0D91BE"/>
  <circle cx="410" cy="404" r="23" fill="#F2C94C"/>
  <rect x="566" y="144" width="444" height="72" rx="20" fill="#F8FBFC" stroke="#D8E3EA" stroke-width="2"/>
  <rect x="600" y="172" width="228" height="16" rx="8" fill="#111827"/>
  <rect x="600" y="246" width="410" height="72" rx="20" fill="#F8FBFC" stroke="#D8E3EA" stroke-width="2"/>
  <rect x="600" y="274" width="284" height="16" rx="8" fill="#0D91BE"/>
  <rect x="600" y="348" width="410" height="72" rx="20" fill="#F8FBFC" stroke="#D8E3EA" stroke-width="2"/>
  <rect x="600" y="376" width="194" height="16" rx="8" fill="#111827"/>
  <text x="566" y="491" fill="#111827" font-family="Arial, Helvetica, sans-serif" font-size="64" font-weight="700">PinPost</text>
  <text x="566" y="532" fill="#54717E" font-family="Arial, Helvetica, sans-serif" font-size="28">Preview social posts before they publish.</text>
</svg>
